<svg width="32" height="32" viewBox="0 0 32 32" fill="none" xmlns="http://www.w3.org/2000/svg">
<path fill-rule="evenodd" clip-rule="evenodd" d="M13.4382 3.59133C12.0988 1.86065 9.53452 1.48966 7.70851 2.73508C6.35638 3.6573 5.76474 5.22246 6.08552 6.68675C1.72912 10.8021 0.637202 17.3182 3.87885 22.5891C7.08103 27.7957 13.5062 30.1541 19.4026 28.7697C20.8007 30.185 23.1247 30.4186 24.8161 29.265C26.6593 28.0079 27.0851 25.5576 25.7315 23.8085C24.392 22.0779 21.8278 21.7069 20.0018 22.9523C19.0335 23.6127 18.4543 24.6034 18.3224 25.6523C13.907 26.5767 9.18612 24.7646 6.82903 20.932C4.48648 17.1231 5.16237 12.4327 8.17514 9.32516C9.51726 10.0007 11.2072 9.9451 12.5229 9.04779C14.366 7.79065 14.7919 5.34035 13.4382 3.59133ZM9.81309 5.54667C10.046 5.3878 10.3727 5.44596 10.5268 5.64501C10.6666 5.82565 10.6339 6.0891 10.4181 6.2363C10.1855 6.39498 9.85872 6.33693 9.70463 6.13783C9.56476 5.95711 9.59755 5.69368 9.81309 5.54667ZM22.1063 25.7638C22.3392 25.605 22.6659 25.6631 22.82 25.8622C22.9598 26.0428 22.9271 26.3063 22.7113 26.4535C22.4786 26.6122 22.1519 26.5541 21.9978 26.355C21.8579 26.1743 21.8907 25.9108 22.1063 25.7638Z" fill="#4255FF"/>
<path d="M17.2456 2.79324C16.3598 2.72817 15.5491 3.35107 15.4755 4.23308C15.4018 5.11817 16.1038 5.8559 16.9918 5.92113C17.5634 5.96313 18.131 6.04807 18.6884 6.17492C19.5523 6.37149 20.452 5.8782 20.6726 5.02379C20.8954 4.16068 20.3257 3.3218 19.4554 3.12375C18.7293 2.95855 17.9902 2.84794 17.2456 2.79324Z" fill="#7583FF"/>
<path d="M24.8609 5.60115C24.1548 5.07419 23.1287 5.17961 22.5601 5.85098C21.9804 6.53556 22.1073 7.53317 22.8262 8.06973C23.2723 8.40269 23.6892 8.76922 24.0731 9.16672C24.6844 9.7997 25.7151 9.84511 26.3856 9.27441C27.0689 8.69284 27.1237 7.68906 26.5003 7.04362C25.995 6.52042 25.4468 6.03845 24.8609 5.60115Z" fill="#7583FF"/>
<path d="M29.4953 11.9758C29.2195 11.1384 28.2915 10.698 27.4414 10.9447C26.5834 11.1937 26.0704 12.0666 26.3496 12.9144C26.5179 13.4255 26.6411 13.9473 26.7188 14.4752C26.8475 15.3498 27.6939 15.9259 28.5739 15.8117C29.4577 15.6971 30.113 14.9197 29.9835 14.0398C29.8808 13.3416 29.7178 12.6516 29.4953 11.9758Z" fill="#7583FF"/>
<path d="M28.4072 17.69C27.5557 17.4484 26.6304 17.8942 26.3601 18.7335C26.1951 19.246 25.9867 19.7457 25.7369 20.2271C25.3247 21.0216 25.6866 21.9633 26.5008 22.3356C27.304 22.7029 28.2874 22.3978 28.6927 21.6164C29.021 20.9837 29.295 20.3269 29.512 19.6529C29.7856 18.8034 29.2667 17.9339 28.4072 17.69Z" fill="#7583FF"/>
</svg>