<svg fill="currentColor" viewBox="0 0 86 20" xmlns="http://www.w3.org/2000/svg"><path d="M33.622 6.166h-3.476a.264.264 0 0 0-.264.265v7.346c0 1.827-1.137 2.466-2.457 2.466-1.319 0-2.456-.684-2.456-2.466V6.431a.266.266 0 0 0-.264-.266H21.23a.264.264 0 0 0-.264.265v7.672c0 3.927 3.048 5.753 6.457 5.753 3.41 0 6.457-1.827 6.457-5.753V6.431a.266.266 0 0 0-.257-.265ZM60.78 1.424h-3.43a.264.264 0 0 0-.264.265v17.457c0 .146.118.264.264.264h3.43a.264.264 0 0 0 .263-.264V1.689a.264.264 0 0 0-.264-.265ZM55.172 6.166H43.117a.264.264 0 0 0-.264.265v2.914a.266.266 0 0 0 .264.265h5.838l-7.09 9.372a.263.263 0 0 0-.026.278.259.259 0 0 0 .236.147h12.64a.264.264 0 0 0 .263-.265v-2.914a.267.267 0 0 0-.264-.265h-6.301l6.97-9.375a.269.269 0 0 0 .023-.276.267.267 0 0 0-.234-.146ZM85.74 6.204h-1.947V1.69a.266.266 0 0 0-.264-.265h-3.426a.264.264 0 0 0-.264.265v4.515h-1.935a.264.264 0 0 0-.264.265v2.914a.264.264 0 0 0 .264.265h1.93v9.496a.267.267 0 0 0 .264.265h3.427a.265.265 0 0 0 .264-.265V9.65h1.947A.264.264 0 0 0 86 9.386V6.472a.265.265 0 0 0-.26-.267ZM39.966 6.166h-3.405a.264.264 0 0 0-.263.265v12.715c0 .147.118.265.263.265h3.405a.264.264 0 0 0 .264-.265V6.431a.264.264 0 0 0-.264-.265ZM38.263 0a2.288 2.288 0 0 0-2.095 1.44 2.314 2.314 0 0 0 .506 2.5 2.29 2.29 0 0 0 2.49.5 2.296 2.296 0 0 0 1.03-.84 2.316 2.316 0 0 0-.28-2.927A2.298 2.298 0 0 0 38.263 0ZM10.052.888a9.39 9.39 0 0 0-4.255.714 9.431 9.431 0 0 0-3.494 2.542 9.51 9.51 0 0 0-2.098 8.174 9.505 9.505 0 0 0 1.834 3.923 9.44 9.44 0 0 0 3.38 2.693 9.396 9.396 0 0 0 8.397-.18.261.261 0 0 1 .264.014A7.277 7.277 0 0 0 18.223 20a.264.264 0 0 0 .264-.265v-3.219a.266.266 0 0 0-.22-.264 3.735 3.735 0 0 1-.881-.254.263.263 0 0 1-.153-.281.27.27 0 0 1 .04-.106 9.52 9.52 0 0 0 .616-9.463 9.465 9.465 0 0 0-3.223-3.69A9.398 9.398 0 0 0 10.041.882l.01.006Zm-6.326 9.465a5.765 5.765 0 0 1 .96-3.193 5.723 5.723 0 0 1 2.563-2.118 5.686 5.686 0 0 1 3.303-.329 5.71 5.71 0 0 1 2.927 1.571 5.77 5.77 0 0 1 1.24 6.261 5.735 5.735 0 0 1-2.107 2.578 5.697 5.697 0 0 1-7.214-.714 5.758 5.758 0 0 1-1.676-4.057l.004.001ZM69.472 5.626A7.063 7.063 0 0 0 66.2 6.722a7.116 7.116 0 0 0-2.37 2.52 7.146 7.146 0 0 0 2.14 9.337 7.068 7.068 0 0 0 6.65.769 7.081 7.081 0 0 0 2.802-2.025.272.272 0 0 0 .064-.198.27.27 0 0 0-.097-.183L73.33 15.28a.264.264 0 0 0-.362.033 3.894 3.894 0 0 1-5.461.446c-.522-.436-.921-1-1.16-1.639h10.399a.262.262 0 0 0 .263-.217 7.16 7.16 0 0 0-.496-4.027 7.124 7.124 0 0 0-1.68-2.375 7.082 7.082 0 0 0-5.36-1.876Zm-3.125 5.71c.28-.75.783-1.397 1.438-1.853a3.907 3.907 0 0 1 4.463 0 3.94 3.94 0 0 1 1.438 1.852h-7.339Z"/></svg>